HIERARCHY
ROOT Hips
{
	OFFSET	0.00	0.00	0.00
	CHANNELS 6 Xposition Yposition Zposition Zrotation Xrotation Yrotation
	JOINT LeftUpLeg
	{
		OFFSET	 0.126116	-0.014019	-0.065224
		CHANNELS 3 Zrotation Xrotation Yrotation
		JOINT LeftLeg
		{
			OFFSET	 0.000000	 0.000000	 0.569914
			CHANNELS 3 Zrotation Xrotation Yrotation
			JOINT LeftFoot
			{
				OFFSET	 0.000000	 0.000000	 0.544423
				CHANNELS 3 Zrotation Xrotation Yrotation
				JOINT LeftToeBase
				{
					OFFSET	 0.000000	 0.000000	 0.207117
					CHANNELS 3 Zrotation Xrotation Yrotation
					End Site
					{
						OFFSET	 0.000000	 0.000000	 0.207117
					}
				}
			}
		}
	}
	JOINT RightUpLeg
	{
		OFFSET	-0.124023	-0.008373	-0.065224
		CHANNELS 3 Zrotation Xrotation Yrotation
		JOINT RightLeg
		{
			OFFSET	 0.000000	 0.000000	 0.570047
			CHANNELS 3 Zrotation Xrotation Yrotation
			JOINT RightFoot
			{
				OFFSET	 0.000000	 0.000000	 0.544354
				CHANNELS 3 Zrotation Xrotation Yrotation
				JOINT RightToeBase
				{
					OFFSET	 0.000000	 0.000000	 0.207540
					CHANNELS 3 Zrotation Xrotation Yrotation
					End Site
					{
						OFFSET	 0.000000	 0.000000	 0.207540
					}
				}
			}
		}
	}
	JOINT Spine
	{
		OFFSET	 0.000184	-0.007763	 0.117403
		CHANNELS 3 Zrotation Xrotation Yrotation
		JOINT Spine1
		{
			OFFSET	 0.000000	 0.000000	 0.137269
			CHANNELS 3 Zrotation Xrotation Yrotation
			JOINT Spine2
			{
				OFFSET	 0.000000	 0.000000	 0.156879
				CHANNELS 3 Zrotation Xrotation Yrotation
				JOINT LeftShoulder
				{
					OFFSET	 0.080501	-0.002496	 0.160144
					CHANNELS 3 Zrotation Xrotation Yrotation
					JOINT LeftArm
					{
						OFFSET	 0.000000	 0.000000	 0.164363
						CHANNELS 3 Zrotation Xrotation Yrotation
						JOINT LeftForeArm
						{
							OFFSET	 0.000000	 0.000000	 0.364576
							CHANNELS 3 Zrotation Xrotation Yrotation
							JOINT LeftHand
							{
								OFFSET	 0.000000	 0.000000	 0.360812
								CHANNELS 3 Zrotation Xrotation Yrotation
								JOINT LeftHandIndex1
								{
									OFFSET	 0.000000	 0.000000	 0.086006
									CHANNELS 3 Zrotation Xrotation Yrotation
									JOINT LeftHandIndex2
									{
										OFFSET	 0.000000	 0.000000	 0.047236
										CHANNELS 3 Zrotation Xrotation Yrotation
										JOINT LeftHandIndex3
										{
											OFFSET	-0.004284	-0.000551	 0.038166
											CHANNELS 3 Zrotation Xrotation Yrotation
											End Site
											{
												OFFSET	-0.004284	-0.000551	 0.038166
											}
										}
									}
								}
							}
						}
					}
				}
				JOINT Neck
				{
					OFFSET	 0.000000	 0.000000	 0.176489
					CHANNELS 3 Zrotation Xrotation Yrotation
					JOINT Head
					{
						OFFSET	 0.000000	-0.001747	 0.077940
						CHANNELS 3 Zrotation Xrotation Yrotation
						End Site
						{
							OFFSET	 0.000000	-0.001747	 0.077940
						}
					}
				}
				JOINT RightShoulder
				{
					OFFSET	-0.080363	 0.000306	 0.159706
					CHANNELS 3 Zrotation Xrotation Yrotation
					JOINT RightArm
					{
						OFFSET	 0.000000	 0.000000	 0.164196
						CHANNELS 3 Zrotation Xrotation Yrotation
						JOINT RightForeArm
						{
							OFFSET	 0.000000	 0.000000	 0.365611
							CHANNELS 3 Zrotation Xrotation Yrotation
							JOINT RightHand
							{
								OFFSET	 0.000000	 0.000000	 0.360648
								CHANNELS 3 Zrotation Xrotation Yrotation
								JOINT RightHandIndex1
								{
									OFFSET	 0.000000	 0.000000	 0.069977
									CHANNELS 3 Zrotation Xrotation Yrotation
									JOINT RightHandIndex2
									{
										OFFSET	 0.000000	 0.000000	 0.052305
										CHANNELS 3 Zrotation Xrotation Yrotation
										JOINT RightHandIndex3
										{
											OFFSET	 0.009002	-0.000782	 0.042196
											CHANNELS 3 Zrotation Xrotation Yrotation
											End Site
											{
												OFFSET	 0.009002	-0.000782	 0.042196
											}
										}
									}
								}
							}
						}
					}
				}
			}
		}
	}
}
MOTION
Frames:    6
Frame Time: 0.03333334
 0.010936	 0.037741	 1.200050	 5.742847	-0.749957	-3.511998	 2.797443	-11.586910	-172.166600	 1.254093	-38.844730	 0.565380	 54.664260	 81.539000	-58.852370	-2.368497	 31.764060	-0.073309	-10.539940	-32.636290	-175.276000	 11.752300	-50.112350	 9.662017	 35.599070	 81.959510	-32.843780	 2.359010	 32.994330	 0.103088	-1.455569	 8.326443	 0.930005	 1.029312	 2.437353	 2.638945	-6.676845	-2.737560	-3.091842	-94.112600	 58.981430	 175.014700	 16.690980	 34.258420	-40.157230	-2.121685	-0.040498	-0.880192	-0.530500	-18.678570	-8.585467	-4.864804	 19.380200	-2.799960	-3.869791	 21.622630	 2.190826	-4.804266	 5.592561	 0.144216	-0.038591	-5.105233	 0.231821	-8.477804	 1.909714	 2.073463	 89.714190	 61.761710	 179.837400	-19.772990	 53.881040	 7.056268	-1.377179	-3.163647	 16.653660	-4.744507	-3.269581	 0.346837	 6.276763	 23.584970	-0.551170	 2.038175	 43.435910	-7.128718	 0.792051	 23.098050	 3.435797
 0.010258	 0.019261	 1.198815	 6.180380	-0.244304	-3.634146	 2.415875	-11.076690	-172.208000	 1.441942	-38.608990	 0.679728	 57.217280	 81.942950	-61.543690	-2.367260	 31.966150	-0.077903	-11.794230	-34.327510	-175.532200	 12.009230	-47.509530	 9.485725	 53.480900	 83.232410	-51.747460	 2.359728	 32.887100	 0.100605	-2.114444	 7.949514	 0.913951	 1.007142	 2.437087	 2.770684	-6.771726	-2.830960	-3.145352	-94.243290	 58.991950	 174.734600	 16.101190	 33.001170	-40.701560	-2.714161	-0.031181	-1.054178	-0.495212	-19.299230	-8.798846	-4.857485	 19.554570	-2.808859	-3.860456	 21.741360	 2.181347	-4.800539	 5.636519	 0.141643	-0.017135	-5.136248	 0.272536	-8.495453	 1.884622	 2.014563	 89.646800	 61.859150	 179.675000	-19.401090	 54.508380	 5.807480	-1.711853	-3.312024	 17.069470	-4.913483	-3.149362	-0.019744	 6.260244	 22.517030	-0.576676	 2.148223	 42.485060	-7.225821	 1.027524	 22.034030	 3.322235
 0.008602	-0.035782	 1.194724	 6.593812	 0.607198	-4.177728	 1.986655	-8.376592	-172.200400	 1.662848	-37.174440	 0.791724	 64.287350	 82.941340	-68.734340	-2.360396	 33.025680	-0.102256	-11.995200	-36.897820	-175.559900	 11.154030	-38.086860	 7.414034	 85.928750	 82.111080	-85.887150	 2.354964	 33.576760	 0.116684	-3.465179	 7.082687	 1.223021	 0.952265	 3.238212	 2.884540	-6.898777	-3.253524	-3.214364	-94.450130	 58.967730	 174.297500	 13.784860	 29.832810	-42.265960	-4.479287	 0.001631	-1.492492	-1.082846	-20.687570	-8.139048	-4.830384	 20.126170	-2.822182	-3.830441	 22.120840	 2.150854	-4.776433	 5.919809	 0.124974	 0.016509	-5.256267	 0.337308	-8.527920	 1.800695	 1.936712	 89.470540	 62.029120	 179.246800	-18.117620	 55.928930	 2.906891	-3.040061	-3.576262	 16.972570	-5.607494	-3.061529	-1.747563	 6.206134	 19.565670	-0.688462	 2.470555	 39.494660	-7.506841	 1.668970	 19.040540	 3.031905
 0.005403	-0.096896	 1.187594	 6.961620	 0.750982	-4.541232	 1.384608	-4.467236	-172.548100	 1.959558	-35.393730	 0.930831	 62.043960	 83.498290	-66.530010	-2.335895	 36.208250	-0.178280	-11.361030	-37.379760	-175.420300	 10.717770	-27.589580	 5.371237	 80.409200	 80.113660	-81.522380	 2.335157	 36.096070	 0.177213	-5.253062	 7.013520	 1.439848	 0.888575	 3.765893	 2.972374	-6.918336	-3.664934	-3.276848	-94.544850	 58.916530	 174.104300	 11.040870	 27.671630	-43.407440	-5.439970	 0.040863	-1.971672	-2.133895	-22.508640	-8.586901	-4.844975	 20.502630	-3.018372	-3.790215	 22.623460	 2.109995	-4.725431	 6.515555	 0.089491	 0.106745	-5.397296	 0.351140	-8.409097	 1.805920	 1.611351	 89.358260	 61.959370	 178.978100	-16.078200	 56.857010	-0.348958	-4.286613	-3.578361	 16.144710	-5.776105	-3.985352	-3.691483	 6.164239	 16.294470	-0.685114	 2.864521	 35.375510	-7.842207	 2.334863	 15.791850	 2.761798
-0.001669	-0.158403	 1.175096	 7.347932	 0.472754	-3.878791	 0.713747	-0.484886	-174.181200	 2.177112	-34.695590	 1.038712	 35.294280	 81.809520	-39.280840	-2.228852	 45.110680	-0.422252	-10.160500	-39.884850	-176.015100	 8.346281	-23.474770	 3.652496	 25.646750	 74.724880	-24.267260	 2.339781	 35.548590	 0.163818	-7.441456	 7.021183	 0.862968	 0.952893	 4.784638	 2.922584	-6.946771	-4.061736	-3.400214	-94.486350	 59.287750	 174.167500	 8.814790	 26.592440	-44.830210	-6.415833	 0.097446	-2.507929	-3.760204	-24.634160	-9.677039	-4.885485	 20.658990	-3.301900	-3.759275	 23.005580	 2.078583	-4.651650	 7.368555	 0.037683	 0.220563	-5.478602	 0.259915	-8.145047	 1.951035	 1.572842	 89.354800	 61.540540	 178.985300	-14.202660	 57.134780	-4.010310	-4.917395	-3.798398	 17.028950	-6.042452	-5.675789	-5.034705	 6.228309	 13.016130	-0.196197	 3.076102	 32.925570	-8.017919	 2.949357	 12.675890	 2.542886
-0.010791	-0.229868	 1.160432	 8.536781	-0.553283	-2.619147	 0.991429	 5.080896	-177.228400	-0.285995	-33.037680	-0.348231	 11.855050	 72.557080	-11.967000	-1.945791	 56.857800	-0.873321	-5.806405	-42.288150	-174.975700	 6.249518	-24.090060	 2.872183	-0.581872	 60.374980	 7.598748	 2.333840	 36.246750	 0.180931	-10.235100	 7.358441	-0.365859	 0.807384	 6.341852	 2.925845	-7.104564	-4.452168	-3.703071	-94.392710	 59.059700	 174.405400	 7.445877	 25.080680	-46.334500	-7.812700	 0.178776	-3.093652	-4.647171	-24.638060	-9.555928	-4.896191	 20.920510	-3.451576	-3.734143	 23.313070	 2.053076	-4.567564	 8.327684	-0.022037	 0.368971	-5.413399	 0.287696	-7.923615	 2.319731	 2.021010	 89.216260	 61.414340	 178.662200	-12.690800	 57.179620	-6.351114	-4.774948	-3.655553	 17.503390	-6.204749	-7.540851	-4.641312	 6.341152	 9.893371	 0.375602	 3.307527	 30.035020	-8.205937	 3.432590	 10.153930	 2.392405
